<?xml version="1.0" encoding="UTF-8"?>
<svg width="256" height="64" version="1.1" viewBox="0 0 67.733 16.933" xmlns="http://www.w3.org/2000/svg">
<g transform="matrix(.25187 0 0 .25187 -1.8989e-7 .13663)">
<path d="m10.176 5.4249-0.14965 11.86q0 4.9759 0.67343 14.928 0.71084 9.9144 0.71084 16.05t-1.6462 10.55q-1.6462 4.3773-5.799 7.3329-1.1972 0-1.9829-0.5986-0.78567-0.5986-0.78567-1.6462t0.93532-1.9081q0.97273-0.8605 2.0577-1.3094 3.0678-3.8535 3.0678-10.812 0-3.8161-0.41154-10.925-0.37413-7.1084-0.44895-9.5777-0.037413-2.5067-0.074826-6.3602-0.037413-3.8909-0.074826-6.3228-0.11224-6.4724-0.97273-11.86-0.26189 0.037413-1.0101 0.22448-1.4965 0.37413-2.3196 0.37413-0.78567 0-1.3843-0.56119-0.56119-0.5986-0.56119-1.3843 0-2.6937 9.1661-2.6937 4.4147 0 4.4147 2.0951 0 2.0951-3.4046 1.9829z"/>
<path d="m23.682 28.546q5.799-5.4997 5.799-12.982v-0.03741q0-5.5371-2.0203-7.6322-1.272-1.3094-4.4521-3.5916 0.03741 4.0406 0.33672 12.122 0.33672 8.0812 0.33672 12.122zm-3.5916 28.172 0.37413-27.349q0-18.183-1.9455-27.349 1.1972-1.721 2.9182-1.721 2.8434 0 5.163 1.272 2.357 1.272 3.8161 3.3672 3.0304 4.4147 3.0304 10.027 0 5.5745-2.4318 10.176-2.4318 4.5644-7.1458 7.1084l0.5986 23.869q0 3.1801-2.5441 3.1801-0.93532 0-1.3843-0.78567-0.44895-0.82308-0.44895-1.7958z"/>
<path d="m48.412 30.828-1.9081-0.074826q-0.89791 0-1.3469 0.56119v23.645q3.9283-0.22448 4.0406-0.22448 4.2651 0 4.2651 2.0203v0.26189q-0.52378 1.0476-1.7958 1.6088-1.2346 0.56119-2.1699 0.63602-0.93532 0.07482-2.4692 0.07482h-2.3944q-2.9182 0-3.5916-1.1224-0.2993-0.52377-0.2993-1.3843v-55.296l6.6221-0.67343q1.1598 0 2.3196 0.71084 1.1972 0.67343 1.1972 1.7958 0 2.2822-3.4794 2.2822l-2.2074-0.074826q-0.56119 0-0.82308 0.037413l0.5986 12.646q0 1.5339-0.18706 4.4895-0.18706 2.9182-0.18706 4.2651 0.41154-0.07483 1.1224-0.26189 1.5713-0.41154 2.4318-0.41154 0.89791 0 1.5713 0.63602 0.71084 0.63602 0.71084 1.5339t-0.56119 1.6088q-0.56119 0.71084-1.4591 0.71084z"/>
<path d="m68.503 14.404-0.14965 9.877q0 6.9962 1.1972 11.748v0.03741q-0.52378 2.4318-0.52378 5.8364l0.63602 13.768q0 3.7413-2.2074 3.7413-1.272 0-1.8706-1.1972-0.5986-1.1972-0.5986-2.6563l0.5986-12.234q0-3.9658-0.52378-11.935-0.52378-7.9689-0.52378-11.935l0.11224-6.6969q0-5.4997-0.71084-7.1458l-4.1528 0.41154q-0.97273 0-1.7584-0.56119-0.74826-0.5986-0.74826-1.4965 0-0.93532 1.8332-1.5713 1.8332-0.67343 4.4895-0.97273 4.6018-0.52378 7.7444-0.52378 0.93532 0 1.6836 0.63602 0.78567 0.5986 0.78567 1.5339t-0.67343 1.4965q-0.67343 0.52378-1.6462 0.52378l-2.7311-0.14965q-0.52378 0-0.78567 0.037413 0.52378 4.4147 0.52378 9.428z"/>
<path d="m87.621 30.828-1.9081-0.07483q-0.89791 0-1.3469 0.56119v23.645q3.9283-0.22448 4.0406-0.22448 4.2651 0 4.2651 2.0203v0.26189q-0.52378 1.0476-1.7958 1.6088-1.2346 0.56119-2.1699 0.63602-0.93532 0.07482-2.4692 0.07482h-2.3944q-2.9182 0-3.5916-1.1224-0.2993-0.52378-0.2993-1.3843v-55.296l6.6221-0.67343q1.1598 0 2.3196 0.71084 1.1972 0.67343 1.1972 1.7958 0 2.2822-3.4794 2.2822l-2.2074-0.074826q-0.56119 0-0.82308 0.037413l0.5986 12.646q0 1.5339-0.18706 4.4895-0.18706 2.9182-0.18706 4.2651 0.41154-0.07483 1.1224-0.26189 1.5713-0.41154 2.4318-0.41154 0.89791 0 1.5713 0.63602 0.71084 0.63602 0.71084 1.5339t-0.56119 1.6088q-0.56119 0.71084-1.4591 0.71084z"/>
<path d="m103 4.1528-0.41154 15.639q0 2.357 0.0748 3.5168 1.272-1.2346 2.4692-2.9556l1.1224-6.6221q0-3.9658-1.0476-6.6595-1.0476-2.6937-2.2074-2.9182zm11.748 53.014q0 2.5067-1.8332 2.5067-1.4217 0-2.7685-2.0577v-0.26189q-0.18707-3.0678-1.9081-8.4179-1.6836-5.35-2.0951-7.2207-0.41154-1.8706-1.3469-7.0336-0.89791-5.2004-1.5713-7.9315v30.192q0 2.4318-2.5067 2.4318-0.8979 0-1.5339-0.5986-0.63602-0.63602-0.63602-1.5339v-0.5986l0.52378-44.933v-9.428q0-0.89791 0.37413-1.272 0.37413-0.37413 2.1699-0.37413 1.7958 0 3.6664 1.1972 1.8706 1.1598 2.993 3.0304 2.3196 3.8535 2.3196 8.4927 0 3.7413-1.8706 8.5675-0.22448 0.52378-0.89791 2.2074-0.67343 1.6836-0.78567 1.9829 0.0374 2.993 0.97274 7.4826 0.97273 4.4521 1.7958 7.2207 0.82308 2.7311 2.7311 8.5675 1.9455 5.8364 2.2074 6.6595z"/>
<path d="m121.11 6.3976q0-5.0133 2.8808-5.0133 3.5168 0 6.0983 1.6836 5.2378 3.3297 5.2378 10.887 0 5.8364-4.6766 12.421 3.2549 4.6018 3.9283 5.4249 0.71085 0.82308 1.2346 1.721 0.52377 0.86049 0.5986 1.085 0.0748 0.18706 0.26189 1.1598 0.18706 0.97273 0.22448 1.6836 0.0374 1.8332 0.33671 4.3399 0.33672 2.5067 0.44896 2.806 0.11223 0.2993-0.29931 1.9455-0.37413 1.6088-0.52378 2.1699-0.14965 0.52378-0.41154 1.4965-0.26189 0.93532-0.44895 1.4217-0.18706 0.44895-0.52378 1.2346-0.33671 0.74826-0.67343 1.1598-0.33672 0.37413-0.82308 1.0101-0.48637 0.5986-1.0476 1.0101-0.56119 0.37413-1.272 0.89791-2.357 1.6462-4.2276 2.0951-1.8332 0.48637-2.0577 0.48637h-0.37413q-2.0951 0-2.6563-0.2993-1.085-0.5986-1.085-1.6088l0.37413-18.856-0.52378-31.127zm7.0336 23.121v-0.03741h-2.6189q0.33671 9.5028 0.33671 26.039 3.7039-0.5986 5.8364-3.5168 2.1325-2.9556 2.1325-6.9214 0-12.945-5.6868-15.564zm-1.8332-23.795q-1.0476 0-1.0476 2.7685 0 2.7311 0.14965 8.6424 0.14965 5.8738 0.14965 8.5301 2.7311-0.63602 4.6766-6.7343 1.0476-3.2549 1.3469-3.9283v-2.7311q0-2.2448-1.6088-4.3773-1.5713-2.1699-3.6664-2.1699z"/>
<path d="m164.73 36.964 0.22447 4.714v1.1598l-0.18706 0.82308 0.0374 4.4521q0 6.7343-1.908 9.5403-1.7958 2.6189-5.5745 2.6189-4.6018 0-6.9962-3.3297-2.0951-2.8434-3.0678-7.6322-1.2346-5.7616-1.9829-8.156-0.0748-0.18706-0.86049-17.135-0.74826-16.948-0.74826-18.819-0.56119-0.63602-0.56119-1.5713t0.63602-1.6462q0.67343-0.71084 1.5713-0.71084 2.7685 0 2.7685 5.4623l0.71085 26.638q0.44895 1.0101 0.74825 4.078 0.33672 3.0678 0.33672 4.7888 0 1.6836 0.52378 4.1902 0.56119 2.4692 1.4965 5.0133t2.5067 4.3399q1.6088 1.7958 3.4046 1.7958 2.9182 0 3.0678-5.2752 0.0374-0.67343 0.0374-1.6088v-34.382q0-2.1699-0.82308-6.5472-0.82308-4.4147-0.82308-5.9486 0-1.5713 0.74825-2.1325 0.78567-0.5986 1.7584-0.5986l2.3196 1.7958v1.272l-0.67343 4.6766q0 4.4521 0.56119 13.057 0.56119 8.5675 0.59861 12.72v0.11224z"/>
<path d="m177 4.1528-0.41154 15.639q0 2.357 0.0748 3.5168 1.272-1.2346 2.4692-2.9556l1.1224-6.6221q0-3.9658-1.0476-6.6595-1.0476-2.6937-2.2074-2.9182zm11.748 53.014q0 2.5067-1.8332 2.5067-1.4217 0-2.7685-2.0577v-0.26189q-0.18707-3.0678-1.9081-8.4179-1.6836-5.35-2.0951-7.2207-0.41154-1.8706-1.3469-7.0336-0.89791-5.2004-1.5713-7.9315v30.192q0 2.4318-2.5067 2.4318-0.8979 0-1.5339-0.5986-0.63602-0.63602-0.63602-1.5339v-0.5986l0.52378-44.933v-9.428q0-0.89791 0.37413-1.272 0.37413-0.37413 2.1699-0.37413t3.6664 1.1972q1.8706 1.1598 2.993 3.0304 2.3196 3.8535 2.3196 8.4927 0 3.7413-1.8706 8.5675-0.22448 0.52378-0.89791 2.2074-0.67343 1.6836-0.78567 1.9829 0.0374 2.993 0.97274 7.4826 0.97273 4.4521 1.7958 7.2207 0.82308 2.7311 2.7311 8.5675 1.9455 5.8364 2.2074 6.6595z"/>
<path d="m193.61 57.99q0-2.0577 1.721-2.0577 0.8605 0 2.2448 0.5986 1.4217 0.56119 2.4318 0.56119 1.0476 0 2.2448-1.3094t1.8706-3.2549q1.3843-3.9283 1.3843-7.1458t-1.1224-6.884-2.7686-6.884q-1.6088-3.2175-3.2175-6.435-3.8535-7.707-3.8535-13.992 0-5.986 3.7787-9.3906 2.0203-1.7958 4.7514-1.7958 1.3843 0 2.6937 0.78567 1.3094 0.74826 1.8332 1.9829v1.6462q-3.2175 0-4.3025-0.74826-1.4217 0.14965-2.4692 1.3469-1.9081 2.2448-1.9081 5.2004 0 2.9182 0.8605 6.0609 0.86049 3.1053 2.0577 5.8738 1.1972 2.7311 2.3944 5.0881 1.2346 2.357 2.0951 3.8535 0.86049 1.4965 0.86049 1.5713v0.5986q0.26189 0.97273 0.89791 3.0678 0.63601 2.0951 1.0101 3.3297 0.93532 3.3672 0.93532 6.0983t-0.67343 5.2004q-0.63602 2.4692-1.8706 4.6766-1.1972 2.1699-3.2923 3.5542-2.0577 1.3843-3.8535 1.3843t-3.0304-0.18706q-1.2346-0.18706-2.4692-0.82308-1.2346-0.63602-1.2346-1.5713z"/>
<path d="m219.58 60.085q-1.1598 0-1.9455-0.86049-0.74825-0.82308-0.74825-1.9081 0-1.1224 0.86049-2.0203 0.8605-0.89791 1.9829-0.89791t1.9455 0.89791q0.82309 0.89791 0.82309 2.0951 0 1.1598-0.8605 1.9081-0.86049 0.78567-2.0577 0.78567z"/>
<path d="m230.09 22.148 0.22447-8.3805q0-3.5542-0.33671-5.0881-0.33672-1.5713-0.8605-2.9556-0.48636-1.4217-0.48636-2.1325 0-0.74826 0.2993-1.2346t0.89791-0.74826q0.5986-0.2993 1.1598-0.44895 0.5612-0.18706 1.4217-0.26189 1.4217-0.074826 2.0577-0.074826h0.74826q3.1427 0 6.6969 3.3672 4.3025 4.078 5.2378 8.6049 0.56119 2.6563 0.74826 5.9112 0.18706 3.2549 0.26189 4.3399 0.22447 2.4692 0.5986 3.3672v3.5542q-0.41154 0.71084-0.41154 2.3196 0 5.799-2.6563 12.683t-6.5846 10.476q-2.9182 2.6563-3.9658 3.1427-1.0101 0.48637-2.0203 0.48637-0.97273 0-2.1325-0.63602-1.1598-0.67343-1.1598-1.9829 1.6836-1.7584 1.6836-9.0165 0-4.2651-0.71084-12.683-0.71084-8.4179-0.71084-12.608zm5.0881 25.141v7.3329q5.9486-4.1902 8.343-15.601 1.1972-5.8364 1.1972-12.084 0-21.512-10.625-21.512v0.074826q0 7.1084 0.52377 21.063 0.52378 13.918 0.5612 20.727z"/>
<path d="m263.87 30.828-1.908-0.07483q-0.89791 0-1.3469 0.56119v23.645q3.9283-0.22448 4.0406-0.22448 4.2651 0 4.2651 2.0203v0.26189q-0.52378 1.0476-1.7958 1.6088-1.2346 0.56119-2.17 0.63602-0.93532 0.07482-2.4692 0.07482h-2.3944q-2.9182 0-3.5916-1.1224-0.2993-0.52378-0.2993-1.3843v-55.296l6.6221-0.67343q1.1598 0 2.3196 0.71084 1.1972 0.67343 1.1972 1.7958 0 2.2822-3.4794 2.2822l-2.2074-0.074826q-0.56119 0-0.82308 0.037413l0.59861 12.646q0 1.5339-0.18707 4.4895-0.18706 2.9182-0.18706 4.2651 0.41154-0.07483 1.1224-0.26189 1.5713-0.41154 2.4318-0.41154 0.89791 0 1.5713 0.63602 0.71084 0.63602 0.71084 1.5339t-0.56119 1.6088q-0.56119 0.71084-1.4591 0.71084z"/>
</g>
</svg>
